<?xml version="1.0" encoding="utf-8"?>
<!-- Generator: Adobe Illustrator 27.5.0, SVG Export Plug-In . SVG Version: 6.00 Build 0)  -->
<svg version="1.1" xmlns="http://www.w3.org/2000/svg" xmlns:xlink="http://www.w3.org/1999/xlink" x="0px" y="0px"
	 viewBox="0 0 500 500" style="enable-background:new 0 0 500 500;" xml:space="preserve">
<g id="BACKGROUND">
	<g>
		<g>
			<rect x="0" y="0.001" style="fill:#FCFCFA;" width="500" height="500.001"/>
		</g>
	</g>
	<rect y="332.857" style="fill:#8585AA;" width="500" height="167.145"/>
</g>
<g id="OBJECTS">
	<g style="opacity:0.6;">
		<g>
			<rect x="454.158" y="151.869" style="fill:#4A4A70;" width="46.939" height="180.989"/>
			<rect x="472.934" y="151.869" style="fill:#62628C;" width="25.682" height="180.989"/>
		</g>
		<g>
			<rect x="378.453" y="91.025" style="fill:#575782;" width="54.465" height="241.832"/>
			<rect x="400.238" y="91.025" style="fill:#8585AA;" width="54.467" height="241.832"/>
		</g>
		<g>
			<rect x="166.794" y="87.86" style="fill:#575782;" width="54.466" height="244.997"/>
			<rect x="188.581" y="87.86" style="fill:#8585AA;" width="54.466" height="244.997"/>
		</g>
		<g>
			<rect x="134.547" y="151.869" style="fill:#4A4A70;" width="46.94" height="180.989"/>
			<rect x="153.324" y="151.869" style="fill:#6E6E8E;" width="46.939" height="180.989"/>
		</g>
		<g>
			<rect x="336.15" y="194.991" style="fill:#575782;" width="60.959" height="137.866"/>
			<rect x="360.533" y="194.991" style="fill:#6E6E8E;" width="60.959" height="137.866"/>
		</g>
		<g>
			<rect x="187.239" y="76.765" style="fill:#575782;" width="27.232" height="11.095"/>
			<rect x="200.854" y="76.765" style="fill:#8585AA;" width="27.233" height="11.095"/>
		</g>
		<g>
			<g>
				<rect x="272.66" y="131.993" style="fill:#575782;" width="54.465" height="200.865"/>
				<rect x="294.447" y="131.993" style="fill:#8585AA;" width="54.465" height="200.865"/>
			</g>
			<g>
				<rect x="293.103" y="120.897" style="fill:#575782;" width="27.234" height="11.095"/>
				<rect x="306.721" y="120.897" style="fill:#8585AA;" width="27.232" height="11.095"/>
			</g>
			<g>
				<rect x="299.893" y="109.803" style="fill:#575782;" width="18.154" height="11.095"/>
				<rect x="308.971" y="109.803" style="fill:#8585AA;" width="18.154" height="11.095"/>
			</g>
			<g>
				<rect x="310.574" y="72.783" style="fill:#575782;" width="3.904" height="37.02"/>
				<rect x="312.525" y="72.783" style="fill:#8585AA;" width="3.906" height="37.02"/>
			</g>
		</g>
		<g>
			<rect x="58.843" y="56.926" style="fill:#575782;" width="54.466" height="275.932"/>
			<rect x="80.629" y="56.926" style="fill:#8585AA;" width="54.466" height="275.932"/>
		</g>
		<g>
			<g>
				<rect x="0" y="146.082" style="fill:#575782;" width="43.203" height="186.775"/>
				<rect x="17.28" y="146.082" style="fill:#8585AA;" width="43.203" height="186.775"/>
			</g>
			<g>
				<rect x="16.216" y="135.765" style="fill:#575782;" width="21.601" height="10.317"/>
				<rect x="27.016" y="135.765" style="fill:#8585AA;" width="21.603" height="10.317"/>
			</g>
			<g>
				<rect x="21.601" y="125.449" style="fill:#575782;" width="14.401" height="10.316"/>
				<rect x="28.801" y="125.449" style="fill:#8585AA;" width="14.401" height="10.316"/>
			</g>
			<g>
				<rect x="30.073" y="91.025" style="fill:#575782;" width="3.098" height="34.423"/>
				<rect x="31.622" y="91.025" style="fill:#8585AA;" width="3.098" height="34.423"/>
			</g>
		</g>
		<g>
			<rect x="364.375" y="183.597" style="fill:#575782;" width="27.232" height="11.095"/>
			<rect x="377.992" y="183.597" style="fill:#6E6E8E;" width="27.232" height="11.095"/>
		</g>
	</g>
	<g>
		<g>
			<g>
				<g>
					<g>
						<path style="fill:#1E1A3B;" d="M264.118,325.423c0,18.681-11.711,33.823-26.154,33.823c-14.444,0-26.155-15.143-26.155-33.823
							c0-18.681,11.71-33.823,26.155-33.823C252.407,291.6,264.118,306.742,264.118,325.423z"/>
						<rect x="216.81" y="291.6" style="fill:#1E1A3B;" width="22.343" height="67.646"/>
						<ellipse style="fill:#0D0D1C;" cx="216.901" cy="325.423" rx="26.154" ry="33.823"/>
						<ellipse style="fill:#1E1A3B;" cx="216.679" cy="325.423" rx="15.613" ry="20.19"/>
						<path style="fill:#1E1A3B;" d="M235.246,325.423c0,11.151-6.991,20.19-15.613,20.19c-8.622,0-15.613-9.039-15.613-20.19
							c0-11.151,6.991-20.191,15.613-20.191C228.255,305.232,235.246,314.272,235.246,325.423z"/>
						<path style="fill:#191733;" d="M232.292,325.423c0,11.151-6.329,20.19-14.137,20.19c-7.807,0-14.136-9.039-14.136-20.19
							c0-11.151,6.329-20.191,14.136-20.191C225.963,305.232,232.292,314.272,232.292,325.423z"/>
						<path style="fill:#1E1A3B;" d="M225.135,325.423c0,7.844-4.453,14.202-9.944,14.202c-5.491,0-9.943-6.358-9.943-14.202
							c0-7.843,4.452-14.202,9.943-14.202C220.682,311.221,225.135,317.58,225.135,325.423z"/>
						<path style="fill:#1E1A3B;" d="M222.079,325.423c0,6.905-3.92,12.503-8.755,12.503c-4.834,0-8.753-5.598-8.753-12.503
							c0-6.905,3.919-12.503,8.753-12.503C218.159,312.92,222.079,318.518,222.079,325.423z"/>
					</g>
					<path style="fill:#131228;" d="M74.471,289.919c0,0-12.399,6.242-12.765,32.095c0,0,17.73,1.457,21.462,0
						c3.732-1.458,34.544-9.687,36.12-18.44C120.864,294.82,89.176,282.741,74.471,289.919z"/>
					<path style="fill:#131228;" d="M240.296,289.919c0,0-12.399,17.086-12.765,42.938c0,0,17.73,1.457,21.462,0
						c3.732-1.458,34.545-20.53,36.119-29.284C286.689,294.82,255.001,282.741,240.296,289.919z"/>
					<g>
						<ellipse style="fill:#1E1A3B;" cx="405.991" cy="325.423" rx="26.154" ry="33.823"/>
						<rect x="384.837" y="291.6" style="fill:#1E1A3B;" width="22.344" height="67.646"/>
						<ellipse style="fill:#0D0D1C;" cx="384.929" cy="325.423" rx="26.154" ry="33.823"/>
						<ellipse style="fill:#1E1A3B;" cx="384.706" cy="325.423" rx="15.613" ry="20.19"/>
						<path style="fill:#1E1A3B;" d="M403.272,325.423c0,11.151-6.988,20.19-15.613,20.19c-8.621,0-15.611-9.039-15.611-20.19
							c0-11.151,6.99-20.191,15.611-20.191C396.284,305.232,403.272,314.272,403.272,325.423z"/>
						<path style="fill:#191733;" d="M400.319,325.423c0,11.151-6.328,20.19-14.135,20.19c-7.809,0-14.137-9.039-14.137-20.19
							c0-11.151,6.328-20.191,14.137-20.191C393.991,305.232,400.319,314.272,400.319,325.423z"/>
						<path style="fill:#1E1A3B;" d="M393.161,325.423c0,7.844-4.451,14.202-9.941,14.202c-5.492,0-9.945-6.358-9.945-14.202
							c0-7.843,4.453-14.202,9.945-14.202C388.71,311.221,393.161,317.58,393.161,325.423z"/>
						<path style="fill:#1E1A3B;" d="M390.104,325.423c0,6.905-3.918,12.503-8.752,12.503c-4.836,0-8.754-5.598-8.754-12.503
							c0-6.905,3.918-12.503,8.754-12.503C386.186,312.92,390.104,318.518,390.104,325.423z"/>
					</g>
					<g>
						<path style="fill:#1E1A3B;" d="M143.266,325.423c0,18.681-11.71,33.823-26.153,33.823c-14.445,0-26.155-15.143-26.155-33.823
							c0-18.681,11.71-33.823,26.155-33.823C131.557,291.6,143.266,306.742,143.266,325.423z"/>
						<rect x="95.959" y="291.6" style="fill:#1E1A3B;" width="22.344" height="67.646"/>
						<path style="fill:#272447;" d="M122.204,325.423c0,18.681-11.709,33.823-26.154,33.823c-14.444,0-26.154-15.143-26.154-33.823
							c0-18.681,11.709-33.823,26.154-33.823C110.495,291.6,122.204,306.742,122.204,325.423z"/>
						<ellipse style="fill:#1E1A3B;" cx="95.828" cy="325.423" rx="15.613" ry="20.19"/>
						<ellipse style="fill:#272447;" cx="98.781" cy="325.423" rx="15.613" ry="20.19"/>
						<path style="fill:#F5F3E9;" d="M111.441,325.423c0,11.151-6.329,20.19-14.137,20.19c-7.807,0-14.136-9.039-14.136-20.19
							c0-11.151,6.329-20.191,14.136-20.191C105.112,305.232,111.441,314.272,111.441,325.423z"/>
						<path style="fill:#272447;" d="M104.283,325.423c0,7.844-4.452,14.202-9.943,14.202c-5.492,0-9.944-6.358-9.944-14.202
							c0-7.843,4.452-14.202,9.944-14.202C99.831,311.221,104.283,317.58,104.283,325.423z"/>
						<ellipse style="fill:#333259;" cx="92.473" cy="325.423" rx="8.754" ry="12.503"/>
					</g>
					<g>
						<ellipse style="fill:#1E1A3B;" cx="287.194" cy="325.423" rx="26.154" ry="33.823"/>
						<rect x="266.04" y="291.6" style="fill:#1E1A3B;" width="22.346" height="67.646"/>
						<ellipse style="fill:#272447;" cx="266.132" cy="325.423" rx="26.154" ry="33.823"/>
						<path style="fill:#1E1A3B;" d="M281.522,325.423c0,11.151-6.99,20.19-15.613,20.19c-8.621,0-15.611-9.039-15.611-20.19
							c0-11.151,6.99-20.191,15.611-20.191C274.532,305.232,281.522,314.272,281.522,325.423z"/>
						<path style="fill:#272447;" d="M284.476,325.423c0,11.151-6.99,20.19-15.611,20.19c-8.625,0-15.613-9.039-15.613-20.19
							c0-11.151,6.988-20.191,15.613-20.191C277.485,305.232,284.476,314.272,284.476,325.423z"/>
						<path style="fill:#F5F3E9;" d="M281.522,325.423c0,11.151-6.328,20.19-14.137,20.19c-7.807,0-14.135-9.039-14.135-20.19
							c0-11.151,6.328-20.191,14.135-20.191C275.194,305.232,281.522,314.272,281.522,325.423z"/>
						<ellipse style="fill:#272447;" cx="264.423" cy="325.423" rx="9.943" ry="14.202"/>
						<path style="fill:#333259;" d="M271.308,325.423c0,6.905-3.918,12.503-8.754,12.503c-4.834,0-8.752-5.598-8.752-12.503
							c0-6.905,3.918-12.503,8.752-12.503C267.39,312.92,271.308,318.518,271.308,325.423z"/>
					</g>
					<path style="fill:#D89E41;" d="M382.815,221.877c0,0-4.113-0.708-9.18,0.313c-4.689,0.947-7.779,1.813-9.668,6.08
						c-0.77,1.74-0.969,4.437-0.936,7.022c0.051,3.935,3.607,6.899,7.494,6.296c4.48-0.697,9.928-1.682,12.416-2.671
						c4.602-1.828,6.367-5.473,6.732-7.877C390.042,228.635,387.216,223.177,382.815,221.877z"/>
					<path style="fill:#EAB044;" d="M320.589,174.666c-39.92-8.005-105.621-11.309-199.652-2.146
						c-10.927,1.065-26.598,7.18-37.768,31.911c-12.059,26.699-10.851,52.442-10.851,52.442s-17.186,7.857-18.33,47.693
						c0,0-0.782,16.678,4.902,17.507c5.684,0.828,7.178-3.502,7.703-8.754c0.525-5.252,7.878-20.482,22.233-21.533
						c14.356-1.05,23.634,24.714,25.384,30.389c1.751,5.676,1.913,10.752,10.848,10.928c8.935,0.175,102.083,0,102.083,0
						s2.327,0.617,2.552-4.42c2.203-49.502,47.391-42.235,55.348-28.728c5.387,9.146-1.867,30.696,15.289,31.047
						c4.813,0.098,32.586,0.141,40.865,0.152c1.328,0.002,2.447-0.977,2.625-2.292c0.318-2.347,0.826-5.785,1.191-6.763
						c23.523-0.002,70.863-0.098,70.863-0.098l1.449,5.796c0.355,1.887,2.006,3.252,3.926,3.246l15.967-0.042
						c0,0,7.002,1.05,7.529-5.428c0.523-6.477,3.324-21.708-1.402-28.36c-4.727-6.652-10.125-9.77-10.125-9.77
						s-2.658-19.252-10.711-28.355c-4.279-4.838-24.816-16.996-36.574-24.522c-5.565-3.562-10.414-7.748-15.25-13.964
						c-4.861-6.245-12.65-17.499-18.92-26.361C344.819,184.423,332.843,177.124,320.589,174.666z"/>
					<path style="fill:#D89E41;" d="M116.564,173.219c-10.795,2.301-17.521,3.646-29.93,23.89
						c-15.17,24.749-14.316,59.765-14.316,59.765s-17.186,7.857-18.33,47.693c0,0-0.782,16.678,4.902,17.507
						c5.684,0.828,7.178-3.502,7.703-8.754c0.525-5.252,7.878-20.482,22.233-21.533c14.356-1.05,23.634,24.714,25.384,30.389
						c1.751,5.676,1.913,10.752,10.848,10.928c8.935,0.175,108.417,0,108.417,0s2.308,0.616,2.552-4.42
						c2.203-45.768,35.215-43.083,47.826-23.451c5.738,8.932,2.998,27.542,16.477,25.771c1.027,0.817,4.873-17.34,1.727-35.76
						c-1.398-8.177-9.453-17.288-10.266-23.048c-6.248-17.433-37.262-33.043-41.178-35.028c-4.377-2.219-10.189-6.227-13.109-10.823
						c-2.254-3.554-17.052-30.881-22.277-39.635c-5.1-8.542-17.958-10.616-24.194-11.594c-8.162-1.28-73.185-1.896-73.185-1.896
						H116.564z"/>
					<path style="fill:#EAB044;" d="M98.781,188.525c-6.273,7.614-11.079,14.879-14.385,30.052
						c-4.857,22.295,7.019,23.226,19.887,34.14c18.57,15.749,18.386,52.784,18.386,52.784s5.019,10.971,15.231,11.204
						c7.411,0.17,48.395,0.094,70.322,0.038c8.29-0.021,13.856-0.038,13.856-0.038s9.804-3.034,10.971-16.105
						c0.352-3.942,0.598-10.705,0.77-18.231c0.397-17.433,0.397-38.957,0.397-38.957s0.575-10.4-5.344-23.339
						c-4.88-10.662-13.411-24.328-16.562-28.646c-3.151-4.318-7.84-8.795-18.579-10.305c-10.736-1.509-65.968-2.381-71.59-2.264
						C110.96,179.091,103.64,182.627,98.781,188.525z"/>
					<g>
						<path style="fill:#1E1A3B;" d="M319.11,314.127c0,3.656,2.291,6.619,5.119,6.619s5.119-2.963,5.119-6.619
							c0-3.656-2.291-6.62-5.119-6.62S319.11,310.471,319.11,314.127z"/>
						
							<rect x="324.229" y="307.507" transform="matrix(-1 -1.224647e-16 1.224647e-16 -1 650.5391 628.2529)" style="fill:#1E1A3B;" width="2.08" height="13.239"/>
						<path style="fill:#272447;" d="M321.173,314.127c0,3.656,2.291,6.619,5.119,6.619c2.826,0,5.117-2.963,5.117-6.619
							c0-3.656-2.291-6.62-5.117-6.62C323.464,307.507,321.173,310.471,321.173,314.127z"/>
						<path style="fill:#272447;" d="M322.7,314.127c0,2.183,1.367,3.951,3.057,3.951c1.688,0,3.055-1.768,3.055-3.951
							c0-2.182-1.367-3.952-3.055-3.952C324.067,310.175,322.7,311.945,322.7,314.127z"/>
						<path style="fill:#F5F3E9;" d="M323.548,314.127c0,2.722,1.543,4.927,3.449,4.927c1.904,0,3.449-2.205,3.449-4.927
							c0-2.721-1.545-4.926-3.449-4.926C325.091,309.201,323.548,311.406,323.548,314.127z"/>
					</g>
					<g>
						<path style="fill:#1E1A3B;" d="M424.261,314.127c0,3.656,2.291,6.619,5.117,6.619c2.828,0,5.119-2.963,5.119-6.619
							c0-3.656-2.291-6.62-5.119-6.62C426.552,307.507,424.261,310.471,424.261,314.127z"/>
						
							<rect x="429.378" y="307.507" transform="matrix(-1 -1.224647e-16 1.224647e-16 -1 860.8359 628.2529)" style="fill:#1E1A3B;" width="2.08" height="13.239"/>
						<path style="fill:#272447;" d="M426.321,314.127c0,3.656,2.291,6.619,5.119,6.619c2.826,0,5.119-2.963,5.119-6.619
							c0-3.656-2.293-6.62-5.119-6.62C428.612,307.507,426.321,310.471,426.321,314.127z"/>
						<path style="fill:#272447;" d="M427.849,314.127c0,2.183,1.369,3.951,3.057,3.951s3.057-1.768,3.057-3.951
							c0-2.182-1.369-3.952-3.057-3.952S427.849,311.945,427.849,314.127z"/>
						<path style="fill:#F5F3E9;" d="M428.696,314.127c0,2.722,1.545,4.927,3.449,4.927s3.449-2.205,3.449-4.927
							c0-2.721-1.545-4.926-3.449-4.926S428.696,311.406,428.696,314.127z"/>
					</g>
					<polygon style="fill:#D89E41;" points="432.058,287.627 293.624,287.735 293.624,286.201 433.245,286.201 					"/>
					<path style="fill:#F5F3E9;" d="M282.415,259.09c0,0,30.943,0.551,36.107,22.859c0.469,2.029-0.838,4.055-2.881,4.459
						c-6.361,1.259-19.398,2.803-21.139-5.201C291.077,265.466,282.415,259.09,282.415,259.09z"/>
					<path style="fill:#F5F3E9;" d="M425.954,283.286c0.064,2.143,1.685,3.912,3.814,4.147c0.912,0.102,2.045,0.12,3.451,0.012
						v-0.101c1.277-13.621-3.584-21.379-8.258-24.942l0,0C424.962,262.402,425.71,275.218,425.954,283.286z"/>
					<path style="fill:#F5F3E9;" d="M346.394,287.428h56.539c2.338,0,4.248-1.912,4.248-4.249v-3.969
						c0-2.337-1.91-4.249-4.248-4.249h-56.539c-2.336,0-4.25,1.912-4.25,4.249v3.969
						C342.144,285.516,344.058,287.428,346.394,287.428z"/>
					<path style="fill:#DBD4B9;" d="M291.2,260.17c0,0,6.375,7.252,8.58,16.444c1.412,5.877,11.881,4.706,18.184,3.306
						c0,0-1.898-8.471-11.033-13.768C298.22,261.1,291.2,260.17,291.2,260.17z"/>
					<path style="fill:#26353F;" d="M140.59,252.717l-14.128-0.699c-0.674,0-1.221-0.547-1.221-1.223v-1.583
						c0-0.675,0.547-1.222,1.221-1.222l14.128-0.699c0.674,0,1.222,0.546,1.222,1.221v2.984
						C141.812,252.17,141.264,252.717,140.59,252.717z"/>
					<path style="fill:#26353F;" d="M188.732,252.717l-14.127-0.699c-0.675,0-1.221-0.547-1.221-1.223v-1.583
						c0-0.675,0.545-1.222,1.221-1.222l14.127-0.699c0.675,0,1.222,0.546,1.222,1.221v2.984
						C189.955,252.17,189.408,252.717,188.732,252.717z"/>
					<path style="fill:#D89E41;" d="M172.333,236.699c-2.121,1.371-8.754,7.352-9.541,12.609c-0.657,4.387-1.196,68.77-1.196,68.77
						h3.668l1.498-63.344c0.029-1.742,0.623-8.56,5.571-12.346c4.934-3.775,6.495-8.683,6.495-8.683h-4.114
						C174.714,233.706,174.455,235.327,172.333,236.699z"/>
					<g>
						<defs>
							<path id="SVGID_1_" d="M236.782,184.472c-3.87,0.845-13.709,2.773-8.8,13.362c5.459,11.777,10.175,21.007,12.183,23.679
								c3.08,4.1,6.889,11.161,23.111,11.394c16.223,0.233,98.631,0,98.631,0s9.84-2.964,1.121-15.381
								c-8.383-11.938-13.584-18.87-17.477-23.413c-5.332-6.228-8.635-8.331-19.957-9.848
								C314.274,182.748,256.964,180.063,236.782,184.472z"/>
						</defs>
						<clipPath id="SVGID_00000183247048500876876520000004434651592761547924_">
							<use xlink:href="#SVGID_1_"  style="overflow:visible;"/>
						</clipPath>
						<path style="clip-path:url(#SVGID_00000183247048500876876520000004434651592761547924_);fill:#38375E;" d="M235.331,183.917
							c-3.964,0.866-14.04,2.84-9.013,13.684c5.591,12.061,9.612,21.046,11.667,23.782c3.154,4.199,7.863,11.896,24.476,12.135
							c16.613,0.239,101.006,0,101.006,0s11.137-2.072,2.484-14.979c-7.648-11.409-12.291-17.121-17.607-24.198
							c-4.725-6.291-7.238-9.083-18.832-10.636C317.921,182.151,255.999,179.401,235.331,183.917z"/>
						
							<polygon style="opacity:0.13;clip-path:url(#SVGID_00000183247048500876876520000004434651592761547924_);fill:#F5F3E9;" points="
							323.575,181.275 268.864,235.319 282.415,236.194 335.067,183.585 						"/>
						
							<polygon style="opacity:0.13;clip-path:url(#SVGID_00000183247048500876876520000004434651592761547924_);fill:#F5F3E9;" points="
							364.829,189.678 310.118,243.723 351.27,244.617 403.272,207.713 						"/>
						
							<polygon style="opacity:0.13;clip-path:url(#SVGID_00000183247048500876876520000004434651592761547924_);fill:#F5F3E9;" points="
							304.581,179.136 249.87,233.181 258.274,233.448 310.925,180.838 						"/>
					</g>
					<path style="fill:#CC4E44;" d="M78.29,248.111c0,0-10.151,4.715-12.843,8.74c-2.294,3.431-4.742,11.688-4.731,14
						c0.006,1.582,0.898-6.082,10.099-9.103C74.277,260.613,78.29,248.111,78.29,248.111"/>
					<g>
						<defs>
							<path id="SVGID_00000039829157797896917910000008445709604461360536_" d="M123.212,184.075c0,0-16.901-0.246-23.577,11.633
								c-4.265,7.589-8.678,16.689-9.281,24.896c-0.448,6.089,4.774,10.768,10.858,11.29c4.631,0.397,10.023,0.831,14.574,1.117
								c15.564,0.978,105.415,0.655,105.415,0.655s9.559,1.383,2.505-12.255c-7.834-15.145-10.699-21.232-14.422-26.113
								c-3.086-4.046-6.375-8.326-16.437-9.454C178.878,184.279,123.212,184.075,123.212,184.075z"/>
						</defs>
						<clipPath id="SVGID_00000046316385690981398160000005077480359673683073_">
							<use xlink:href="#SVGID_00000039829157797896917910000008445709604461360536_"  style="overflow:visible;"/>
						</clipPath>
						<path style="clip-path:url(#SVGID_00000046316385690981398160000005077480359673683073_);fill:#38375E;" d="M121.899,182.057
							c0,0-16.458,1.253-23.301,13.43c-3.642,6.479-6.904,14.188-9.424,20.82c-2.897,7.625,2.421,15.873,10.559,16.418
							c5.202,0.348,10.7,0.71,14.819,0.969c15.956,1.002,108.07,0.672,108.07,0.672s9.8,1.418,2.567-12.563
							c-8.031-15.527-9.435-19.504-13.251-24.508c-3.164-4.148-6.534-12.58-16.85-13.736
							C180.764,181.953,121.899,182.057,121.899,182.057z"/>
						
							<polygon style="opacity:0.13;clip-path:url(#SVGID_00000046316385690981398160000005077480359673683073_);fill:#F5F3E9;" points="
							171.824,184.074 117.113,238.119 141.777,239.115 194.428,186.505 						"/>
						
							<polygon style="opacity:0.13;clip-path:url(#SVGID_00000046316385690981398160000005077480359673683073_);fill:#F5F3E9;" points="
							155.322,180.512 100.61,234.557 112.789,235.055 165.441,182.443 						"/>
						
							<polygon style="opacity:0.13;clip-path:url(#SVGID_00000046316385690981398160000005077480359673683073_);fill:#F5F3E9;" points="
							224.192,192.599 169.479,246.643 210.633,247.538 262.636,210.634 						"/>
					</g>
					<polygon style="fill:#EAB044;" points="121.532,183.558 112.401,234.158 116.515,234.158 126.088,183.583 					"/>
					<polygon style="fill:#EAB044;" points="183.787,184.074 174.714,233.706 178.828,233.706 188.276,184.537 					"/>
					<path style="fill:#D89E41;" d="M225.441,222.982c0,0-7.362-2.112-13.075-2.324c-5.292-0.197-8.837-0.066-11.975,4.035
						c-1.279,1.672-2.194,4.523-2.827,7.312c-0.965,4.246,2.093,8.357,6.432,8.714c4.999,0.411,11.115,0.763,14.049,0.344
						c5.423-0.774,8.265-4.237,9.282-6.729C228.345,231.84,229.838,225.52,225.441,222.982z"/>
					<path style="fill:#DBD4B9;" d="M425.726,278.465c0.049,1.647,1.295,3.008,2.934,3.189c0.701,0.078,4.768,0.008,4.768,0.008
						c0-10.062-5.002-16.702-8.465-19.26l0,0C424.962,262.402,425.538,272.26,425.726,278.465z"/>
					<g>
						<path style="fill:#131228;" d="M346.038,328.69h69.104c1.262,0,2.223-1.125,2.018-2.368c-0.967-5.85-4.75-20.52-18.4-20.739
							c-17.057-0.276-32.096-0.358-39.459,0c-3.783,0.184-10.283,2.113-12.965,10.093c-1.568,4.67-2.131,8.519-2.332,10.79
							C343.897,327.661,344.835,328.69,346.038,328.69z"/>
						<g>
							<path style="fill:#272447;" d="M351.69,328.69h60.57c1.105,0,1.949-0.986,1.768-2.076
								c-0.846-5.127-4.16-17.986-16.127-18.179c-14.951-0.241-28.133-0.314-34.588,0c-3.314,0.161-9.012,1.853-11.363,8.848
								c-1.375,4.093-1.867,7.467-2.045,9.457C349.813,327.789,350.636,328.69,351.69,328.69z"/>
							<g>
								<defs>
									<path id="SVGID_00000085936303388086953190000004482424397291129274_" d="M351.69,328.69h60.57
										c1.105,0,1.949-0.986,1.768-2.076c-0.846-5.127-4.16-17.986-16.127-18.179c-14.951-0.241-28.133-0.314-34.588,0
										c-3.314,0.161-9.012,1.853-11.363,8.848c-1.375,4.093-1.867,7.467-2.045,9.457
										C349.813,327.789,350.636,328.69,351.69,328.69z"/>
								</defs>
								<clipPath id="SVGID_00000067227800454990204220000002467027805954637497_">
									<use xlink:href="#SVGID_00000085936303388086953190000004482424397291129274_"  style="overflow:visible;"/>
								</clipPath>
								
									<rect x="348.632" y="323.185" transform="matrix(-1 -1.224647e-16 1.224647e-16 -1 763.9531 649.1748)" style="clip-path:url(#SVGID_00000067227800454990204220000002467027805954637497_);fill:#404066;" width="66.689" height="2.804"/>
								
									<rect x="348.632" y="317.127" transform="matrix(-1 -1.224647e-16 1.224647e-16 -1 763.9531 637.0577)" style="clip-path:url(#SVGID_00000067227800454990204220000002467027805954637497_);fill:#404066;" width="66.689" height="2.804"/>
								
									<rect x="348.632" y="311.068" transform="matrix(-1 -1.224647e-16 1.224647e-16 -1 763.9531 624.9405)" style="clip-path:url(#SVGID_00000067227800454990204220000002467027805954637497_);fill:#404066;" width="66.689" height="2.804"/>
							</g>
						</g>
					</g>
					<g>
						<rect x="200.208" y="140.754" style="fill:#EDEDE4;" width="59.167" height="28.951"/>
						<rect x="205.208" y="140.754" style="fill:#FCFCFA;" width="59.167" height="28.951"/>
						
							<text transform="matrix(1 0 0 1 208.1973 163.2314)" style="fill:#272447; font-family:'Quicksand-Bold'; font-size:23.6275px;">TAXI</text>
					</g>
				</g>
			</g>
		</g>
		<g>
			<g>
				<g>
					<path style="fill:#EFC5A8;" d="M206.013,291.127l-7.208,6.162c-3.794,3.219-9.481,2.751-12.699-1.041
						c-3.217-3.791-2.752-9.48,1.041-12.699l7.209-6.162c3.794-3.219,9.481-2.751,12.699,1.041
						C210.273,282.223,209.807,287.91,206.013,291.127z"/>
				</g>
				<g>
					<path style="fill:#EFC5A8;" d="M210.813,311.819l-18.099,14.941c-3.794,3.217-9.482,2.752-12.699-1.042
						c-3.218-3.792-2.751-9.48,1.042-12.697l18.1-14.943c3.792-3.217,9.48-2.75,12.699,1.041
						C215.072,302.914,214.605,308.601,210.813,311.819z"/>
				</g>
				<path style="fill:#F9D0AF;" d="M88.293,286.976L69.96,311.408c0,0-6.176,14.261-8.029,22.319
					c-1.853,8.06-4.94,54.118-5.249,55.043c-0.308,0.928-16.517,15.654-16.517,15.654l49.868,50.695l22.439-16.688
					c1.097-0.814,2.253-1.547,3.46-2.19l53.842-28.679l-27.213-71.644l-48.454-5.799c-1.661-0.197-2.654-1.945-1.976-3.476
					c2.516-5.676,7.626-17.664,8.105-22.439c0.583-5.795,2.913-15.72-6.954-18.839C91.45,284.787,89.446,285.44,88.293,286.976z"/>
				<polygon style="fill:#38375E;" points="35.24,397.703 95.371,461.691 49.117,500.002 0,500.002 0,419.422 				"/>
				<g>
					<g>
						<g>
							<path style="fill:#1B1A33;" d="M174.652,384.272l-73.875-7.806c-4.964-0.524-8.596-5.016-8.071-9.979l16.979-160.681
								c0.525-4.964,5.015-8.596,9.979-8.073l73.874,7.807c4.964,0.525,8.597,5.015,8.072,9.98L184.632,376.2
								C184.107,381.164,179.615,384.796,174.652,384.272z"/>
							<polygon style="fill:#A8DDCF;" points="181.466,363.922 98.734,355.18 113.088,219.155 195.841,228.258 							"/>
							<path d="M143.874,211.217c-0.063,0.596-0.599,1.028-1.195,0.966c-0.597-0.064-1.029-0.598-0.966-1.194
								c0.064-0.597,0.598-1.03,1.195-0.967C143.504,210.086,143.936,210.62,143.874,211.217z"/>
							<path style="fill:none;stroke:#000000;stroke-width:0.6978;stroke-miterlimit:10;" d="M144.49,369.7
								c-0.326,3.085-3.091,5.322-6.177,4.997c-3.084-0.327-5.32-3.092-4.994-6.177c0.325-3.085,3.091-5.322,6.176-4.996
								C142.579,363.851,144.815,366.616,144.49,369.7z"/>
							<path d="M157.302,207.095c-0.063,0.597-0.598,1.029-1.194,0.967c-0.597-0.063-1.03-0.599-0.967-1.195
								c0.063-0.597,0.598-1.03,1.196-0.966C156.932,205.963,157.366,206.499,157.302,207.095z"/>
							
								<line style="fill:none;stroke:#000000;stroke-width:1.5385;stroke-linecap:round;stroke-miterlimit:10;" x1="149.854" y1="211.849" x2="161.471" y2="213.077"/>
						</g>
						<g>
							<polygon style="fill:#5E4FC9;" points="181.466,363.922 98.734,355.18 113.088,219.155 195.841,228.258 							"/>
							<g>
								<defs>
									<polygon id="SVGID_00000039093199239309486650000011887968058596197540_" points="181.466,363.922 98.734,355.18 
										113.088,219.155 195.841,228.258 									"/>
								</defs>
								<clipPath id="SVGID_00000157274609732142234700000011635625715127019453_">
									<use xlink:href="#SVGID_00000039093199239309486650000011887968058596197540_"  style="overflow:visible;"/>
								</clipPath>
								<g style="clip-path:url(#SVGID_00000157274609732142234700000011635625715127019453_);">
									<path style="fill:#54C8E1;" d="M191.356,270.463l-35.4,20.25c-0.572,0.322-0.758,1.061-0.404,1.615l8.09,12.733
										c0.33,0.519,1.009,0.685,1.54,0.38l23.922-13.797L191.356,270.463z"/>
									<g>
										<path style="fill:#54C8E1;" d="M171.992,329.642c-0.423,0-0.848-0.022-1.278-0.065c-3.273-0.338-6.221-1.933-8.298-4.49
											c-2.075-2.555-3.03-5.766-2.691-9.039c0.701-6.76,6.783-11.684,13.528-10.99c3.274,0.338,6.221,1.932,8.298,4.488
											c2.076,2.557,3.032,5.767,2.692,9.042l0,0C183.587,324.916,178.222,329.642,171.992,329.642z M171.986,316.663
											c-0.333,0-0.618,0.249-0.653,0.587c-0.018,0.179,0.029,0.34,0.144,0.48c0.113,0.14,0.26,0.219,0.436,0.237
											c0.368,0.038,0.686-0.225,0.724-0.585c0.019-0.178-0.03-0.341-0.143-0.48c-0.113-0.141-0.261-0.22-0.438-0.238
											C172.032,316.663,172.009,316.663,171.986,316.663z"/>
									</g>
									<path style="fill:#54C8E1;" d="M146.444,286.908c-0.055,0.531-0.531,0.919-1.062,0.863
										c-0.532-0.056-0.919-0.532-0.864-1.063c0.054-0.533,0.53-0.919,1.063-0.863
										C146.113,285.898,146.499,286.375,146.444,286.908z"/>
									<path style="fill:#54C8E1;" d="M144.673,284.605c-0.055,0.531-0.532,0.918-1.063,0.862
										c-0.533-0.056-0.919-0.529-0.864-1.061c0.055-0.532,0.531-0.919,1.063-0.863
										C144.342,283.6,144.727,284.072,144.673,284.605z"/>
									<path style="fill:#54C8E1;" d="M143.72,287.6c-0.055,0.53-0.531,0.92-1.063,0.863c-0.531-0.056-0.919-0.531-0.863-1.063
										c0.055-0.532,0.531-0.919,1.063-0.863C143.388,286.59,143.775,287.068,143.72,287.6z"/>
									<path style="fill:#54C8E1;" d="M151.482,277.273c-0.055,0.533-0.53,0.921-1.061,0.863
										c-0.532-0.055-0.919-0.531-0.864-1.063c0.055-0.531,0.531-0.918,1.064-0.863
										C151.152,276.266,151.539,276.742,151.482,277.273z"/>
									<path style="fill:#54C8E1;" d="M154.131,275.933c-0.055,0.532-0.53,0.919-1.062,0.863c-0.533-0.054-0.918-0.53-0.864-1.063
										s0.53-0.919,1.063-0.863C153.801,274.924,154.188,275.4,154.131,275.933z"/>
									<path style="fill:#54C8E1;" d="M157.066,274.672c-0.055,0.533-0.531,0.92-1.062,0.865
										c-0.532-0.056-0.919-0.532-0.864-1.064c0.054-0.531,0.531-0.919,1.064-0.863
										C156.735,273.664,157.122,274.141,157.066,274.672z"/>
									<path style="fill:#54C8E1;" d="M161.618,271.971c-0.054,0.532-0.531,0.92-1.061,0.863
										c-0.533-0.055-0.919-0.531-0.864-1.065c0.054-0.53,0.53-0.916,1.064-0.861
										C161.287,270.962,161.673,271.439,161.618,271.971z"/>
									<path style="fill:#54C8E1;" d="M164.35,270.883c-0.055,0.533-0.531,0.92-1.063,0.865c-0.532-0.056-0.919-0.531-0.864-1.064
										c0.055-0.531,0.531-0.918,1.064-0.863C164.019,269.875,164.405,270.352,164.35,270.883z"/>
									<path style="fill:#54C8E1;" d="M158.857,271.971c-0.054,0.532-0.531,0.92-1.062,0.863
										c-0.532-0.055-0.918-0.531-0.864-1.065c0.055-0.53,0.531-0.916,1.064-0.861
										C158.526,270.962,158.913,271.439,158.857,271.971z"/>
									<path style="fill:#54C8E1;" d="M163.555,268.624c-0.055,0.533-0.531,0.921-1.063,0.863
										c-0.532-0.056-0.919-0.532-0.864-1.061c0.055-0.532,0.532-0.919,1.065-0.863
										C163.223,267.615,163.61,268.092,163.555,268.624z"/>
									<path style="fill:#54C8E1;" d="M166.634,268.272c-0.055,0.533-0.53,0.922-1.062,0.863
										c-0.532-0.055-0.919-0.531-0.864-1.063c0.055-0.531,0.53-0.918,1.064-0.863C166.303,267.263,166.69,267.74,166.634,268.272
										z"/>
									<path style="fill:#54C8E1;" d="M155.862,272.24c-0.055,0.533-0.531,0.92-1.061,0.865c-0.533-0.055-0.919-0.531-0.864-1.065
										c0.054-0.531,0.531-0.918,1.064-0.863C155.531,271.233,155.919,271.71,155.862,272.24z"/>
									<path style="fill:#54C8E1;" d="M156.335,269.24c-0.055,0.533-0.531,0.92-1.063,0.864c-0.532-0.056-0.919-0.532-0.864-1.064
										c0.055-0.531,0.531-0.92,1.064-0.864C156.003,268.232,156.39,268.708,156.335,269.24z"/>
									<path style="fill:#54C8E1;" d="M151.227,268.624c-0.055,0.533-0.531,0.921-1.063,0.863
										c-0.532-0.056-0.918-0.532-0.864-1.061c0.055-0.532,0.532-0.919,1.065-0.863
										C150.895,267.615,151.282,268.092,151.227,268.624z"/>
									<path style="fill:#54C8E1;" d="M160.794,269.592c-0.054,0.534-0.531,0.921-1.062,0.865
										c-0.532-0.056-0.919-0.532-0.864-1.063c0.054-0.532,0.531-0.92,1.063-0.865C160.463,268.584,160.85,269.06,160.794,269.592
										z"/>
									<path style="fill:#54C8E1;" d="M153.163,273.411c-0.054,0.532-0.531,0.919-1.063,0.862
										c-0.532-0.056-0.919-0.532-0.864-1.064c0.055-0.53,0.531-0.917,1.064-0.86
										C152.832,272.401,153.219,272.878,153.163,273.411z"/>
									<path style="fill:#54C8E1;" d="M153.163,271.002c-0.054,0.533-0.531,0.92-1.063,0.864
										c-0.532-0.056-0.919-0.532-0.864-1.064c0.055-0.532,0.531-0.917,1.064-0.863
										C152.832,269.994,153.219,270.471,153.163,271.002z"/>
									<path style="fill:#54C8E1;" d="M146.451,269.592c-0.054,0.534-0.53,0.921-1.062,0.865
										c-0.532-0.056-0.919-0.532-0.864-1.063c0.055-0.532,0.53-0.92,1.064-0.865C146.12,268.584,146.507,269.06,146.451,269.592z
										"/>
									<path style="fill:#54C8E1;" d="M149.712,274.972c-0.055,0.53-0.532,0.919-1.063,0.862
										c-0.533-0.053-0.919-0.529-0.864-1.062c0.055-0.532,0.531-0.919,1.063-0.863
										C149.38,273.965,149.766,274.44,149.712,274.972z"/>
									<path style="fill:#54C8E1;" d="M149.727,271.275c-0.055,0.529-0.531,0.916-1.063,0.86c-0.532-0.054-0.919-0.53-0.864-1.063
										c0.056-0.532,0.531-0.919,1.064-0.863C149.396,270.267,149.781,270.74,149.727,271.275z"/>
									<path style="fill:#54C8E1;" d="M146.444,272.94c-0.055,0.531-0.531,0.917-1.063,0.862
										c-0.532-0.056-0.919-0.531-0.863-1.061c0.055-0.533,0.53-0.919,1.062-0.863
										C146.114,271.932,146.498,272.407,146.444,272.94z"/>
									<path style="fill:#54C8E1;" d="M148.758,277.967c-0.055,0.53-0.53,0.918-1.064,0.863c-0.532-0.057-0.918-0.533-0.863-1.065
										c0.056-0.531,0.531-0.918,1.063-0.863C148.426,276.955,148.813,277.434,148.758,277.967z"/>
									<path style="fill:#54C8E1;" d="M162.195,332.782c-0.055,0.527-0.532,0.915-1.063,0.862
										c-0.532-0.058-0.918-0.53-0.864-1.063c0.055-0.533,0.532-0.92,1.064-0.864
										C161.862,331.772,162.249,332.246,162.195,332.782z"/>
									<path style="fill:#54C8E1;" d="M159.423,334.563c-0.055,0.532-0.532,0.919-1.063,0.863
										c-0.532-0.056-0.919-0.53-0.864-1.062c0.055-0.533,0.531-0.919,1.063-0.865
										C159.091,333.554,159.479,334.03,159.423,334.563z"/>
									<path style="fill:#54C8E1;" d="M156.562,336.57c-0.056,0.53-0.532,0.917-1.064,0.863c-0.531-0.057-0.918-0.533-0.863-1.064
										c0.055-0.532,0.531-0.919,1.063-0.863C156.229,335.56,156.616,336.036,156.562,336.57z"/>
									<path style="fill:#54C8E1;" d="M153.698,338.556c-0.056,0.53-0.532,0.918-1.065,0.863c-0.53-0.057-0.917-0.533-0.862-1.063
										c0.055-0.533,0.531-0.92,1.061-0.864C153.366,337.546,153.752,338.022,153.698,338.556z"/>
									<path style="fill:#54C8E1;" d="M103.514,338.567c-0.055,0.532-0.53,0.92-1.062,0.864c-0.532-0.056-0.919-0.532-0.864-1.063
										c0.055-0.532,0.53-0.918,1.063-0.864C103.183,337.559,103.568,338.035,103.514,338.567z"/>
									<path style="fill:#54C8E1;" d="M106.989,338.926c-0.056,0.533-0.531,0.92-1.063,0.866
										c-0.532-0.057-0.919-0.531-0.864-1.064c0.056-0.533,0.532-0.919,1.064-0.866
										C106.658,337.92,107.044,338.396,106.989,338.926z"/>
									<path style="fill:#54C8E1;" d="M110.771,339.318c-0.055,0.533-0.531,0.92-1.063,0.863c-0.532-0.054-0.919-0.53-0.863-1.063
										c0.055-0.53,0.53-0.917,1.062-0.864C110.439,338.311,110.826,338.787,110.771,339.318z"/>
									<path style="fill:#54C8E1;" d="M150.889,340.554c-0.056,0.532-0.531,0.919-1.064,0.864
										c-0.531-0.056-0.917-0.532-0.862-1.062c0.055-0.531,0.53-0.919,1.063-0.864
										C150.558,339.545,150.944,340.022,150.889,340.554z"/>
									<path style="fill:#54C8E1;" d="M148.028,342.204c-0.055,0.532-0.532,0.921-1.063,0.864
										c-0.532-0.056-0.918-0.529-0.863-1.064c0.054-0.531,0.531-0.916,1.063-0.863
										C147.698,341.198,148.083,341.674,148.028,342.204z"/>
									
										<line style="fill:none;stroke:#EDEDED;stroke-width:2.0445;stroke-miterlimit:10;" x1="127.918" y1="251.791" x2="163.058" y2="308.859"/>
									
										<line style="fill:none;stroke:#EDEDED;stroke-width:2.0445;stroke-miterlimit:10;" x1="189.396" y1="293.98" x2="143.92" y2="319.669"/>
									
										<line style="fill:none;stroke:#EDEDED;stroke-width:2.0445;stroke-miterlimit:10;" x1="153.08" y1="314.495" x2="167.326" y2="335.381"/>
									
										<line style="fill:none;stroke:#EDEDED;stroke-width:2.0445;stroke-miterlimit:10;" x1="174.126" y1="331.939" x2="183.967" y2="346.368"/>
									<path style="fill:none;stroke:#EDEDED;stroke-width:2.0445;stroke-miterlimit:10;" d="M186.316,323.705
										c-0.331,0.176-42.464,27.056-42.464,27.056"/>
									
										<line style="fill:none;stroke:#EDEDED;stroke-width:2.0445;stroke-miterlimit:10;" x1="140.053" y1="338.379" x2="124.014" y2="348.466"/>
									
										<line style="fill:none;stroke:#EDEDED;stroke-width:2.0445;stroke-miterlimit:10;" x1="137.057" y1="333.732" x2="146.706" y2="348.71"/>
									<path style="fill:#54C8E1;" d="M134.317,325.368l-27.149-2.813c-0.578-0.061-0.999-0.577-0.938-1.154l2.034-19.632
										c0.06-0.578,0.577-0.999,1.154-0.938l27.149,2.813c0.579,0.059,0.998,0.576,0.939,1.154l-2.033,19.63
										C135.412,325.008,134.895,325.426,134.317,325.368z"/>
									<path style="fill:#54C8E1;" d="M172.196,351.145l-6.171-9.325c-0.268-0.402-0.156-0.948,0.248-1.215l6.551-4.336
										c0.404-0.269,0.948-0.157,1.216,0.246l6.172,9.326c0.268,0.404,0.157,0.948-0.248,1.218l-6.55,4.333
										C173.008,351.662,172.463,351.548,172.196,351.145z"/>
									<path style="fill:#54C8E1;" d="M161.923,259.363l-23.182-2.688c-1.003-0.113-1.725-1.024-1.608-2.029l1.887-16.285
										c0.114-1.006,1.025-1.727,2.029-1.609l23.185,2.688c1.004,0.114,1.726,1.023,1.61,2.029l-1.89,16.285
										C163.842,258.764,162.929,259.482,161.923,259.363z"/>
									<path style="fill:#123D44;" d="M133.836,308.705c-0.056,0.532-0.532,0.919-1.063,0.863
										c-0.533-0.056-0.919-0.533-0.865-1.064c0.056-0.531,0.532-0.918,1.064-0.865
										C133.504,307.694,133.891,308.172,133.836,308.705z"/>
									<path style="fill:#FBCE3A;" d="M167.344,290.733c-0.096,0.925-0.923,1.598-1.846,1.501c-0.925-0.098-1.595-0.924-1.5-1.848
										c0.096-0.923,0.922-1.595,1.848-1.5C166.768,288.985,167.44,289.81,167.344,290.733z"/>
									<path style="fill:#FBCE3A;" d="M112.045,319.081c-0.095,0.926-0.922,1.597-1.846,1.499c-0.925-0.093-1.595-0.921-1.5-1.844
										c0.095-0.925,0.923-1.596,1.846-1.501C111.47,317.331,112.141,318.16,112.045,319.081z"/>
									<path style="fill:#FBCE3A;" d="M160.509,330.26c-0.097,0.924-0.924,1.594-1.848,1.5c-0.924-0.096-1.595-0.924-1.498-1.848
										c0.095-0.923,0.922-1.597,1.845-1.499C159.933,328.509,160.603,329.337,160.509,330.26z"/>
									<path style="fill:#123D44;" d="M130.983,309.382c-0.055,0.532-0.531,0.917-1.064,0.863
										c-0.532-0.057-0.918-0.53-0.862-1.063c0.055-0.532,0.53-0.919,1.063-0.863
										C130.652,308.375,131.038,308.852,130.983,309.382z"/>
									<path style="fill:#123D44;" d="M132.064,306.4c-0.056,0.535-0.532,0.92-1.063,0.865c-0.533-0.057-0.92-0.531-0.865-1.064
										c0.056-0.532,0.533-0.916,1.063-0.862C131.733,305.393,132.12,305.869,132.064,306.4z"/>
									<path style="fill:#123D44;" d="M129.274,307.086c-0.055,0.531-0.532,0.92-1.063,0.863
										c-0.533-0.056-0.919-0.529-0.864-1.063c0.054-0.533,0.531-0.918,1.063-0.863
										C128.942,306.078,129.329,306.553,129.274,307.086z"/>
									
										<line style="fill:none;stroke:#EDEDED;stroke-width:2.0445;stroke-miterlimit:10;" x1="161.216" y1="339.951" x2="170.478" y2="353.532"/>
									
										<line style="fill:none;stroke:#EDEDED;stroke-width:1.916;stroke-miterlimit:10;" x1="100.616" y1="335.347" x2="116.552" y2="336.996"/>
									
										<line style="fill:none;stroke:#EDEDED;stroke-width:2.0445;stroke-miterlimit:10;" x1="130.885" y1="220.643" x2="123.402" y2="292.897"/>
									<g>
										<path style="fill:#C4B9FF;" d="M124.594,359.051l-15.478-1.602l3.011-29.072c0.439-4.23,4.195-7.314,8.426-6.948
											c5.653,0.501,9.966,0.884,13.29,1.213c0.547-5.272,1.262-12.173,1.805-17.411l-24.899-2.582
											c-2.075-0.215-3.977-1.254-5.279-2.885c-1.302-1.63-1.894-3.717-1.643-5.787l9.065-74.975l15.448,1.869l-8.115,67.117
											l24.766,2.567c4.274,0.442,7.379,4.267,6.937,8.54l-3.277,31.632c-0.03,0.29-0.066,0.572-0.108,0.844
											c-0.006,0.194-0.019,0.39-0.039,0.584l-0.062-0.007c-1.425,7.266-7.256,7.061-8.472,6.936
											c-0.42-0.043-0.833-0.12-1.234-0.229c-1.559-0.222-6.405-0.712-11.92-1.228L124.594,359.051z M133.024,330.542
											c-0.42,4.064,2.264,7.229,5.226,8.165c-1.372-0.469-2.599-1.317-3.527-2.46
											C133.423,334.646,132.813,332.594,133.024,330.542z"/>
									</g>
									<g>
										<g>
											
												<rect x="118.239" y="220.115" transform="matrix(0.1042 -0.9946 0.9946 0.1042 -112.4095 316.082)" style="fill:#EDEDED;" width="2.044" height="0.656"/>
										</g>
										<g>
											<path style="fill:#EDEDED;" d="M112.521,288.711l-0.652-0.068l0.435-4.201l0.652,0.068L112.521,288.711z
												 M113.392,280.309l-0.652-0.069l0.435-4.2l0.652,0.068L113.392,280.309z M114.261,271.906l-0.653-0.067l0.435-4.202
												l0.653,0.068L114.261,271.906z M115.131,263.505l-0.653-0.069l0.435-4.2l0.653,0.067L115.131,263.505z M116.001,255.102
												l-0.653-0.066l0.435-4.202l0.653,0.068L116.001,255.102z M116.872,246.701l-0.653-0.069l0.435-4.2l0.653,0.067
												L116.872,246.701z M117.742,238.297l-0.653-0.067l0.435-4.2l0.653,0.066L117.742,238.297z M118.612,229.895l-0.653-0.068
												l0.435-4.201l0.653,0.069L118.612,229.895z"/>
										</g>
										<g>
											<polygon style="fill:#EDEDED;" points="113.549,295.447 111.189,295.203 111.434,292.844 112.086,292.912 
												111.909,294.619 113.617,294.795 											"/>
										</g>
										<g>
											<path style="fill:#EDEDED;" d="M138.038,297.984l-4.082-0.422l0.067-0.653l4.082,0.423L138.038,297.984z M129.875,297.14
												l-4.082-0.423l0.067-0.652l4.082,0.422L129.875,297.14z M121.712,296.295l-4.082-0.424l0.068-0.652l4.082,0.424
												L121.712,296.295z"/>
										</g>
										<g>
											<polygon style="fill:#EDEDED;" points="144.303,300.358 143.65,300.289 143.827,298.585 142.12,298.409 142.187,297.756 
												144.547,298.002 											"/>
										</g>
										<g>
											<path style="fill:#EDEDED;" d="M137.186,331.169c-1.124-0.124-2.442-0.26-3.84-0.399l0.064-0.652
												c1.401,0.138,2.722,0.274,3.848,0.399L137.186,331.169z M141.118,331.103l-0.653-0.068l0.399-3.85l0.652,0.069
												L141.118,331.103z M129.502,330.395c-1.328-0.127-2.639-0.249-3.846-0.36l0.061-0.652c1.207,0.111,2.52,0.233,3.847,0.36
												L129.502,330.395z M141.915,323.41l-0.653-0.068l0.398-3.844l0.652,0.069L141.915,323.41z M142.711,315.723l-0.652-0.067
												l0.397-3.845l0.652,0.068L142.711,315.723z M143.508,308.036l-0.652-0.068l0.398-3.845l0.653,0.069L143.508,308.036z"/>
										</g>
										<g>
											<polygon style="fill:#EDEDED;" points="119.981,331.246 119.329,331.177 119.573,328.822 121.928,329.035 
												121.869,329.686 120.159,329.533 											"/>
										</g>
										<g>
											<path style="fill:#EDEDED;" d="M118.004,350.334l-0.652-0.067l0.494-4.772l0.653,0.069L118.004,350.334z
												 M118.993,340.791l-0.652-0.069l0.494-4.772l0.652,0.068L118.993,340.791z"/>
										</g>
										<g>
											<polygon style="fill:#EDEDED;" points="117.3,357.141 116.647,357.071 116.858,355.039 117.51,355.108 											"/>
										</g>
									</g>
								</g>
							</g>
						</g>
						<polyline style="fill:none;stroke:#EDEDED;stroke-width:2.0445;stroke-miterlimit:10;" points="130.831,231.612 
							172.145,236.018 168.237,271.424 147.305,283.277 						"/>
						
							<line style="fill:none;stroke:#EDEDED;stroke-width:2.0445;stroke-miterlimit:10;" x1="158.422" y1="224.142" x2="157.308" y2="234.436"/>
						<g>
							<defs>
								<polygon id="SVGID_00000041977749261549022430000005354880390403245753_" points="181.466,363.922 98.734,355.18 
									113.088,219.155 195.841,228.258 								"/>
							</defs>
							<clipPath id="SVGID_00000169517205092853617450000017527709094995066013_">
								<use xlink:href="#SVGID_00000041977749261549022430000005354880390403245753_"  style="overflow:visible;"/>
							</clipPath>
							
								<line style="clip-path:url(#SVGID_00000169517205092853617450000017527709094995066013_);fill:none;stroke:#EDEDED;stroke-width:2.0445;stroke-miterlimit:10;" x1="169.281" y1="261.964" x2="195.877" y2="248.058"/>
							
								<line style="clip-path:url(#SVGID_00000169517205092853617450000017527709094995066013_);fill:none;stroke:#EDEDED;stroke-width:2.0445;stroke-miterlimit:10;" x1="172.145" y1="236.018" x2="195.877" y2="238.304"/>
							<g style="clip-path:url(#SVGID_00000169517205092853617450000017527709094995066013_);">
								<path style="fill:none;" d="M191.356,270.463l-35.4,20.25c-0.572,0.322-0.758,1.061-0.404,1.615l8.09,12.733
									c0.33,0.519,1.009,0.685,1.54,0.38l23.922-13.797L191.356,270.463z"/>
								<path style="fill:none;" d="M146.444,286.908c-0.055,0.531-0.531,0.919-1.062,0.863c-0.532-0.056-0.919-0.532-0.864-1.063
									c0.054-0.533,0.53-0.919,1.063-0.863C146.113,285.898,146.499,286.375,146.444,286.908z"/>
								<path style="fill:none;" d="M144.673,284.605c-0.055,0.531-0.532,0.918-1.063,0.862c-0.533-0.056-0.919-0.529-0.864-1.061
									c0.055-0.532,0.531-0.919,1.063-0.863C144.342,283.6,144.727,284.072,144.673,284.605z"/>
								<path style="fill:none;" d="M143.72,287.6c-0.055,0.53-0.531,0.92-1.063,0.863c-0.531-0.056-0.919-0.531-0.863-1.063
									c0.055-0.532,0.531-0.919,1.063-0.863C143.388,286.59,143.775,287.068,143.72,287.6z"/>
								<path style="fill:none;" d="M151.482,277.273c-0.055,0.533-0.53,0.921-1.061,0.863c-0.532-0.055-0.919-0.531-0.864-1.063
									c0.055-0.531,0.531-0.918,1.064-0.863C151.152,276.266,151.539,276.742,151.482,277.273z"/>
								<path style="fill:none;" d="M154.131,275.933c-0.055,0.532-0.53,0.919-1.062,0.863c-0.533-0.054-0.918-0.53-0.864-1.063
									s0.53-0.919,1.063-0.863C153.801,274.924,154.188,275.4,154.131,275.933z"/>
								<path style="fill:none;" d="M157.066,274.672c-0.055,0.533-0.531,0.92-1.062,0.865c-0.532-0.056-0.919-0.532-0.864-1.064
									c0.054-0.531,0.531-0.919,1.064-0.863C156.735,273.664,157.122,274.141,157.066,274.672z"/>
								<path style="fill:none;" d="M161.618,271.971c-0.054,0.532-0.531,0.92-1.061,0.863c-0.533-0.055-0.919-0.531-0.864-1.065
									c0.054-0.53,0.53-0.916,1.064-0.861C161.287,270.962,161.673,271.439,161.618,271.971z"/>
								<path style="fill:none;" d="M164.35,270.883c-0.055,0.533-0.531,0.92-1.063,0.865c-0.532-0.056-0.919-0.531-0.864-1.064
									c0.055-0.531,0.531-0.918,1.064-0.863C164.019,269.875,164.405,270.352,164.35,270.883z"/>
								<path style="fill:none;" d="M158.857,271.971c-0.054,0.532-0.531,0.92-1.062,0.863c-0.532-0.055-0.918-0.531-0.864-1.065
									c0.055-0.53,0.531-0.916,1.064-0.861C158.526,270.962,158.913,271.439,158.857,271.971z"/>
								<path style="fill:none;" d="M163.555,268.624c-0.055,0.533-0.531,0.921-1.063,0.863c-0.532-0.056-0.919-0.532-0.864-1.061
									c0.055-0.532,0.532-0.919,1.065-0.863C163.223,267.615,163.61,268.092,163.555,268.624z"/>
								<path style="fill:none;" d="M166.634,268.272c-0.055,0.533-0.53,0.922-1.062,0.863c-0.532-0.055-0.919-0.531-0.864-1.063
									c0.055-0.531,0.53-0.918,1.064-0.863C166.303,267.263,166.69,267.74,166.634,268.272z"/>
								<path style="fill:none;" d="M155.862,272.24c-0.055,0.533-0.531,0.92-1.061,0.865c-0.533-0.055-0.919-0.531-0.864-1.065
									c0.054-0.531,0.531-0.918,1.064-0.863C155.531,271.233,155.919,271.71,155.862,272.24z"/>
								<path style="fill:none;" d="M156.335,269.24c-0.055,0.533-0.531,0.92-1.063,0.864c-0.532-0.056-0.919-0.532-0.864-1.064
									c0.055-0.531,0.531-0.92,1.064-0.864C156.003,268.232,156.39,268.708,156.335,269.24z"/>
								<path style="fill:none;" d="M151.227,268.624c-0.055,0.533-0.531,0.921-1.063,0.863c-0.532-0.056-0.918-0.532-0.864-1.061
									c0.055-0.532,0.532-0.919,1.065-0.863C150.895,267.615,151.282,268.092,151.227,268.624z"/>
								<path style="fill:none;" d="M160.794,269.592c-0.054,0.534-0.531,0.921-1.062,0.865c-0.532-0.056-0.919-0.532-0.864-1.063
									c0.054-0.532,0.531-0.92,1.063-0.865C160.463,268.584,160.85,269.06,160.794,269.592z"/>
								<path style="fill:none;" d="M153.163,273.411c-0.054,0.532-0.531,0.919-1.063,0.862c-0.532-0.056-0.919-0.532-0.864-1.064
									c0.055-0.53,0.531-0.917,1.064-0.86C152.832,272.401,153.219,272.878,153.163,273.411z"/>
								<path style="fill:none;" d="M153.163,271.002c-0.054,0.533-0.531,0.92-1.063,0.864c-0.532-0.056-0.919-0.532-0.864-1.064
									c0.055-0.532,0.531-0.917,1.064-0.863C152.832,269.994,153.219,270.471,153.163,271.002z"/>
								<path style="fill:none;" d="M146.451,269.592c-0.054,0.534-0.53,0.921-1.062,0.865c-0.532-0.056-0.919-0.532-0.864-1.063
									c0.055-0.532,0.53-0.92,1.064-0.865C146.12,268.584,146.507,269.06,146.451,269.592z"/>
								<path style="fill:none;" d="M149.712,274.972c-0.055,0.53-0.532,0.919-1.063,0.862c-0.533-0.053-0.919-0.529-0.864-1.062
									c0.055-0.532,0.531-0.919,1.063-0.863C149.38,273.965,149.766,274.44,149.712,274.972z"/>
								<path style="fill:none;" d="M149.727,271.275c-0.055,0.529-0.531,0.916-1.063,0.86c-0.532-0.054-0.919-0.53-0.864-1.063
									c0.056-0.532,0.531-0.919,1.064-0.863C149.396,270.267,149.781,270.74,149.727,271.275z"/>
								<path style="fill:none;" d="M146.444,272.94c-0.055,0.531-0.531,0.917-1.063,0.862c-0.532-0.056-0.919-0.531-0.863-1.061
									c0.055-0.533,0.53-0.919,1.062-0.863C146.114,271.932,146.498,272.407,146.444,272.94z"/>
								<path style="fill:none;" d="M148.758,277.967c-0.055,0.53-0.53,0.918-1.064,0.863c-0.532-0.057-0.918-0.533-0.863-1.065
									c0.056-0.531,0.531-0.918,1.063-0.863C148.426,276.955,148.813,277.434,148.758,277.967z"/>
								<path style="fill:none;" d="M162.195,332.782c-0.055,0.527-0.532,0.915-1.063,0.862c-0.532-0.058-0.918-0.53-0.864-1.063
									c0.055-0.533,0.532-0.92,1.064-0.864C161.862,331.772,162.249,332.246,162.195,332.782z"/>
								<path style="fill:none;" d="M159.423,334.563c-0.055,0.532-0.532,0.919-1.063,0.863c-0.532-0.056-0.919-0.53-0.864-1.062
									c0.055-0.533,0.531-0.919,1.063-0.865C159.091,333.554,159.479,334.03,159.423,334.563z"/>
								<path style="fill:none;" d="M156.562,336.57c-0.056,0.53-0.532,0.917-1.064,0.863c-0.531-0.057-0.918-0.533-0.863-1.064
									c0.055-0.532,0.531-0.919,1.063-0.863C156.229,335.56,156.616,336.036,156.562,336.57z"/>
								<path style="fill:none;" d="M153.698,338.556c-0.056,0.53-0.532,0.918-1.065,0.863c-0.53-0.057-0.917-0.533-0.862-1.063
									c0.055-0.533,0.531-0.92,1.061-0.864C153.366,337.546,153.752,338.022,153.698,338.556z"/>
								<path style="fill:none;" d="M103.514,338.567c-0.055,0.532-0.53,0.92-1.062,0.864c-0.532-0.056-0.919-0.532-0.864-1.063
									c0.055-0.532,0.53-0.918,1.063-0.864C103.183,337.559,103.568,338.035,103.514,338.567z"/>
								<path style="fill:none;" d="M106.989,338.926c-0.056,0.533-0.531,0.92-1.063,0.866c-0.532-0.057-0.919-0.531-0.864-1.064
									c0.056-0.533,0.532-0.919,1.064-0.866C106.658,337.92,107.044,338.396,106.989,338.926z"/>
								<path style="fill:none;" d="M110.771,339.318c-0.055,0.533-0.531,0.92-1.063,0.863c-0.532-0.054-0.919-0.53-0.863-1.063
									c0.055-0.53,0.53-0.917,1.062-0.864C110.439,338.311,110.826,338.787,110.771,339.318z"/>
								<path style="fill:none;" d="M150.889,340.554c-0.056,0.532-0.531,0.919-1.064,0.864c-0.531-0.056-0.917-0.532-0.862-1.062
									c0.055-0.531,0.53-0.919,1.063-0.864C150.558,339.545,150.944,340.022,150.889,340.554z"/>
								<path style="fill:none;" d="M148.028,342.204c-0.055,0.532-0.532,0.921-1.063,0.864c-0.532-0.056-0.918-0.529-0.863-1.064
									c0.054-0.531,0.531-0.916,1.063-0.863C147.698,341.198,148.083,341.674,148.028,342.204z"/>
								<line style="fill:none;" x1="127.918" y1="251.791" x2="163.058" y2="308.859"/>
								<line style="fill:none;" x1="189.396" y1="293.98" x2="143.92" y2="319.669"/>
								<line style="fill:none;" x1="153.08" y1="314.495" x2="167.326" y2="335.381"/>
								<line style="fill:none;" x1="174.126" y1="331.939" x2="183.967" y2="346.368"/>
								<path style="fill:none;" d="M186.316,323.705c-0.331,0.176-42.464,27.056-42.464,27.056"/>
								<line style="fill:none;" x1="140.053" y1="338.379" x2="124.014" y2="348.466"/>
								<line style="fill:none;" x1="137.057" y1="333.732" x2="146.706" y2="348.71"/>
								<path style="fill:none;" d="M134.317,325.368l-27.149-2.813c-0.578-0.061-0.999-0.577-0.938-1.154l2.034-19.632
									c0.06-0.578,0.577-0.999,1.154-0.938l27.149,2.813c0.579,0.059,0.998,0.576,0.939,1.154l-2.033,19.63
									C135.412,325.008,134.895,325.426,134.317,325.368z"/>
								<path style="fill:none;" d="M172.196,351.145l-6.171-9.325c-0.268-0.402-0.156-0.948,0.248-1.215l6.551-4.336
									c0.404-0.269,0.948-0.157,1.216,0.246l6.172,9.326c0.268,0.404,0.157,0.948-0.248,1.218l-6.55,4.333
									C173.008,351.662,172.463,351.548,172.196,351.145z"/>
								<path style="fill:none;" d="M161.923,259.363l-23.182-2.688c-1.003-0.113-1.725-1.024-1.608-2.029l1.887-16.285
									c0.114-1.006,1.025-1.727,2.029-1.609l23.185,2.688c1.004,0.114,1.726,1.023,1.61,2.029l-1.89,16.285
									C163.842,258.764,162.929,259.482,161.923,259.363z"/>
								<path style="fill:none;" d="M133.836,308.705c-0.056,0.532-0.532,0.919-1.063,0.863c-0.533-0.056-0.919-0.533-0.865-1.064
									c0.056-0.531,0.532-0.918,1.064-0.865C133.504,307.694,133.891,308.172,133.836,308.705z"/>
								<path style="fill:none;" d="M167.344,290.733c-0.096,0.925-0.923,1.598-1.846,1.501c-0.925-0.098-1.595-0.924-1.5-1.848
									c0.096-0.923,0.922-1.595,1.848-1.5C166.768,288.985,167.44,289.81,167.344,290.733z"/>
								<path style="fill:none;" d="M112.045,319.081c-0.095,0.926-0.922,1.597-1.846,1.499c-0.925-0.093-1.595-0.921-1.5-1.844
									c0.095-0.925,0.923-1.596,1.846-1.501C111.47,317.331,112.141,318.16,112.045,319.081z"/>
								<path style="fill:none;" d="M160.509,330.26c-0.097,0.924-0.924,1.594-1.848,1.5c-0.924-0.096-1.595-0.924-1.498-1.848
									c0.095-0.923,0.922-1.597,1.845-1.499C159.933,328.509,160.603,329.337,160.509,330.26z"/>
								<path style="fill:none;" d="M130.983,309.382c-0.055,0.532-0.531,0.917-1.064,0.863c-0.532-0.057-0.918-0.53-0.862-1.063
									c0.055-0.532,0.53-0.919,1.063-0.863C130.652,308.375,131.038,308.852,130.983,309.382z"/>
								<path style="fill:none;" d="M132.064,306.4c-0.056,0.535-0.532,0.92-1.063,0.865c-0.533-0.057-0.92-0.531-0.865-1.064
									c0.056-0.532,0.533-0.916,1.063-0.862C131.733,305.393,132.12,305.869,132.064,306.4z"/>
								<path style="fill:none;" d="M129.274,307.086c-0.055,0.531-0.532,0.92-1.063,0.863c-0.533-0.056-0.919-0.529-0.864-1.063
									c0.054-0.533,0.531-0.918,1.063-0.863C128.942,306.078,129.329,306.553,129.274,307.086z"/>
								<line style="fill:none;" x1="161.216" y1="339.951" x2="170.478" y2="353.532"/>
								<line style="fill:none;" x1="100.616" y1="335.347" x2="116.552" y2="336.996"/>
								<line style="fill:none;" x1="130.885" y1="220.643" x2="123.402" y2="292.897"/>
								<path style="fill:none;" d="M116.404,303.033h-0.003l2.679,4.141l3.371-3.414c0.731-0.652,1.233-1.565,1.342-2.613
									c0.231-2.232-1.392-4.232-3.625-4.463c-2.235-0.232-4.233,1.392-4.464,3.625C115.6,301.31,115.872,302.265,116.404,303.033z
									"/>
								<path style="fill:none;" d="M121.756,300.978c-0.116,1.109-1.11,1.914-2.219,1.799c-1.111-0.113-1.918-1.106-1.803-2.219
									c0.115-1.109,1.108-1.918,2.219-1.803C121.063,298.871,121.87,299.865,121.756,300.978z"/>
							</g>
							<polygon style="clip-path:url(#SVGID_00000169517205092853617450000017527709094995066013_);fill:none;" points="
								181.466,363.922 98.734,355.18 113.088,219.155 195.841,228.258 							"/>
						</g>
					</g>
				</g>
				<g>
					<path style="fill:#E46558;" d="M131.042,276.524h-0.005l6.296,9.731l7.924-8.025c1.717-1.533,2.898-3.678,3.153-6.145
						c0.544-5.244-3.272-9.944-8.522-10.486c-5.251-0.545-9.947,3.27-10.491,8.519C129.153,272.477,129.792,274.716,131.042,276.524
						z"/>
					<path style="fill:#EDEDED;" d="M143.622,271.691c-0.272,2.609-2.608,4.502-5.217,4.232c-2.612-0.268-4.508-2.605-4.237-5.215
						c0.27-2.609,2.605-4.512,5.217-4.236C141.993,266.742,143.891,269.075,143.622,271.691z"/>
				</g>
				<path style="fill:#EFC5A8;" d="M205.821,291.355L203.991,293c-3.793,3.218-9.48,2.75-12.699-1.042
					c-3.218-3.794-2.752-9.481,1.042-12.699l2.917-2.653"/>
				<path style="fill:#EFC5A8;" d="M201.532,319.477l-1.831,1.643c-3.793,3.217-9.481,2.752-12.699-1.043
					c-3.218-3.791-2.75-9.478,1.042-12.698l4.715-4.02"/>
				<path style="opacity:0.05;fill:#0D0D1C;" d="M93.021,329.721c0,0-4.37,36.228-4.602,38.316
					c-0.604,5.45,2.995,11.517,9.382,12.117c3.02,0.284,49.486,5.979,49.486,5.979l12.162,26.929l11.763-5.715l-13.848-24.404
					L93.021,329.721z"/>
				<g>
					<path style="fill:#F9D0AF;" d="M264.771,446.806c-1.025-2.825-1.719-5.758-2.066-8.743l-9.5-81.433l-0.779-7.013
						c-0.26-5.505-4.934-9.758-10.438-9.498c-4.686,0.221-8.454,3.647-9.313,8.056l-0.939-8.44
						c-0.26-5.503-4.936-9.757-10.438-9.497c-5.504,0.26-9.758,4.936-9.498,10.439l0.623,5.603l-0.597-0.15l-2.015-18.13
						c-0.26-5.502-4.937-9.756-10.438-9.497c-5.504,0.26-9.757,4.934-9.498,10.438l1.382,12.438
						c-0.244,0.015-0.483,0.042-0.722,0.073c-0.056-0.571-0.152-1.142-0.313-1.713l-20.476-56.746
						c-1.995-5.679-6.128-8.227-11.433-6.744c-5.307,1.484-5.232,6.299-3.748,11.604l13.486,48.78
						c0.005,0.027,0.005,0.048,0.011,0.073c0.396,2.024,1.191,4.719,2.16,7.779l0.007,0.028c0.006,0.02,0.014,0.037,0.019,0.056
						c2.741,8.648,6.88,20.239,7.594,28.293c0.634,7.155-4.735,10.301-4.735,10.301l-5.746-12.845
						c-6.195-11.605-16.988-15.138-22.61-13.523c-5.281,1.598,0.64,12.157,0.64,12.157s6.906,15.9,20.153,39.98
						c0,0,28.974,52.666,32.267,57.194c0.542,0.745,16.626,33.875,16.626,33.875S254.023,500,254.024,500l28.118-13.04
						L264.771,446.806z"/>
					<path style="opacity:0.5;fill:#FCFCFA;" d="M158.347,289.494l10.313-3.622c0,0-1.571-5.71-5.156-7.084
						c-3.585-1.374-5.782,0.796-6.524,2.161C155.31,284.02,158.347,289.494,158.347,289.494z"/>
					<path style="opacity:0.5;fill:#FCFCFA;" d="M147.266,373.171l6.081-2.137c0,0-0.86-7.88-4.446-9.254
						c-3.585-1.374-5.677,0.188-5.384,1.714C144.284,367.494,147.266,373.171,147.266,373.171z"/>
				</g>
				<path style="opacity:0.05;fill:#0D0D1C;" d="M202.541,318.863l2.276-2.095c0,0-4.855-2.943-8.976-1.47
					c-4.12,1.473-6.278,4.641-7.143,6.325c0.389,0.549,2.834,1.322,2.834,1.322c1.699-2.55,4.546-4.289,7.84-4.444
					c1.028-0.049,2.028,0.06,2.975,0.306"/>
			</g>
			<g>
				<polygon style="fill:#D1CDF9;" points="202.166,485.167 275,459 286.5,481.375 208.333,500.002 				"/>
				<g>
					<path style="fill:#AFAFDB;" d="M270.488,471.147c0,1.708,0.612,2.491-0.81,3.253c-0.098,0.053-1.773,0.804-1.875,0.85
						c-0.572,0.255-1.207,0.398-1.876,0.398c-2.519,0-4.561-2.015-4.561-4.5c0-1.794,1.064-3.343,2.603-4.065
						c0.112-0.053,1.245-0.55,1.362-0.594c0.502-0.188,0.027,0.158,0.596,0.158C268.447,466.647,270.488,468.661,270.488,471.147z"
						/>
					<path style="fill:#C0BFEF;" d="M272.154,470.397c0,2.485-2.041,4.5-4.561,4.5c-2.518,0-4.561-2.015-4.561-4.5
						c0-2.485,2.043-4.5,4.561-4.5C270.113,465.897,272.154,467.911,272.154,470.397z"/>
				</g>
			</g>
			<polygon style="fill:#D1CDF9;" points="51.059,389.214 107.745,448.523 93.271,459.163 37.051,399.883 			"/>
			<polygon style="fill:#38375E;" points="208.156,500 285,471.667 299.285,500 			"/>
		</g>
	</g>
</g>
</svg>
